<svg width="40" height="40" viewBox="0 0 40 40" fill="none" xmlns="http://www.w3.org/2000/svg">
<g clip-path="url(#clip0_1_4)">
<path d="M16.0754 0.834085C16.2208 0.427662 16.5602 -0.0218048 17.0725 0.00522327C17.9083 -0.0550895 18.6381 0.417652 19.275 0.868621C20.2287 1.52881 20.7228 2.57314 21.2743 3.52263C21.7801 3.15325 22.3329 2.79613 22.9801 2.69377C23.6155 2.55087 24.2642 2.79588 24.7987 3.11371C25.1406 2.77511 25.6071 2.50032 26.1221 2.5336C26.5806 2.59141 26.9502 2.8687 27.3471 3.07166C27.7506 2.89198 28.1242 2.5779 28.6037 2.61719C29.331 2.62945 29.8392 3.20205 30.2086 3.72809C30.3082 3.72684 30.5059 3.72434 30.6043 3.72309C31.1008 3.11721 31.532 2.44976 32.1609 1.951C32.7085 1.51254 33.251 1.05682 33.8892 0.73423C34.2403 0.558047 34.619 0.341323 35.0381 0.41515C35.6343 0.5593 35.8793 1.17018 36.0142 1.67746C36.3207 3.19354 35.9498 4.73039 35.8372 6.24772C36.2985 6.70945 36.6326 7.31908 36.584 7.97076C36.6155 8.63095 36.1871 9.18002 35.8242 9.70481C36.368 10.2319 36.7479 10.9241 36.7845 11.6666C36.7962 12.1383 36.4373 12.5065 36.2199 12.9044C37.0845 13.6334 37.3611 14.8059 37.3651 15.8577C37.3978 16.5352 36.9772 17.131 36.4884 17.5918C36.119 17.8688 36.7189 18.0795 36.8055 18.3616C37.3886 19.5561 36.9797 20.9418 36.3495 22.0464C37.4161 22.9035 37.4251 24.4614 36.8578 25.5796C36.7044 25.8814 36.5014 26.1559 36.3087 26.4342C37.0515 26.9107 37.3908 27.7446 37.5783 28.5389C37.8428 29.6398 37.539 30.816 36.8943 31.7545C38.1574 32.7077 38.2112 34.5502 37.3961 35.7829C37.0973 36.0675 37.5257 36.2817 37.6609 36.5317C38.0132 37.087 38.0776 37.7608 38.1103 38.3952C38.1561 39.1069 37.775 39.7583 37.315 40.2966C37.7094 40.6095 38.1641 40.9396 38.261 41.4493C38.4692 42.0122 38.1864 42.591 37.8483 43.0515C38.2663 43.2289 38.6659 43.5035 38.8494 43.9162C39.1179 44.5393 38.9883 45.2413 38.7655 45.8594C38.5403 46.458 38.0791 46.9295 37.6871 47.4333C37.7277 47.6698 38.0423 47.7904 38.1747 47.9999C38.7733 48.7882 38.5233 49.8693 37.9492 50.6059C38.3043 50.7105 38.6712 50.9187 38.7052 51.3091C38.7643 51.9815 38.2204 52.676 37.509 52.8239C37.2717 52.8449 36.8723 52.915 37.0898 52.5739C37.4959 52.4285 38.0005 52.3349 38.1904 51.9125C38.3974 51.6575 38.3268 51.3471 38.2415 51.0663C37.9479 51.001 37.6559 50.931 37.3716 50.8569C37.7017 50.2633 38.2285 49.6932 38.1381 48.9774C38.1722 48.3345 37.5825 47.9406 37.1816 47.5106C37.6336 46.858 38.2638 46.2901 38.4957 45.5218C38.6399 45.0281 38.7172 44.4665 38.4762 43.9897C38.2718 43.5956 37.7988 43.4652 37.4371 43.2422C37.3558 42.9454 37.6546 42.7249 37.77 42.4737C38.0936 42.0057 37.9797 41.3332 37.5445 40.9638C37.3388 40.7766 37.1043 40.6215 36.9181 40.4233C36.9116 40.0982 37.2182 39.8752 37.3688 39.6067C37.8758 38.9257 37.7632 38.0378 37.585 37.2742C37.4882 36.7877 37.1095 36.4256 36.7845 36.0637C37.4502 35.1771 37.8208 34.0121 37.3818 32.9615C37.2194 32.464 36.7529 32.1574 36.4058 31.7853C37.3505 30.6524 37.5718 29.0477 36.9234 27.7383C36.7504 27.2235 36.3062 26.8837 35.8685 26.5746C35.8948 26.2766 36.1435 26.0548 36.2917 25.8036C36.8878 24.9835 37.019 23.8773 36.6336 22.9564C36.5039 22.598 36.1593 22.3875 35.8462 22.189C36.1385 21.6202 36.4869 21.0659 36.614 20.4377C36.7674 19.6582 36.7882 18.753 36.1763 18.1348C35.9536 18.1273 35.7361 18.1201 35.5211 18.1126C35.8172 17.5325 36.4934 17.2394 36.7842 16.6555C37.2167 15.8835 36.9559 14.9795 36.6874 14.1997C36.5144 13.8549 36.39 13.3819 35.9616 13.2553C35.0679 13.3021 34.1993 13.5323 33.3123 13.6136C33.2861 14.4227 33.1382 15.2318 32.8406 15.9941C32.7175 16.2972 32.5183 16.6012 32.1894 16.7379C31.5986 16.9929 30.9394 17.0642 30.3015 17.1308C29.1931 17.1851 28.0676 17.1383 26.9865 16.8858C27.9953 18.3058 27.8459 20.3451 26.5986 21.5939C25.5388 22.7441 23.7279 23.2086 22.2003 22.6986C20.518 22.1973 19.3153 20.5901 19.3651 18.9337C19.3886 17.6085 20.1459 16.2699 21.4102 15.638C20.1472 15.6785 18.8513 15.7426 17.625 15.404C17.1743 15.2759 16.7131 15.0999 16.4065 14.7526C16.13 14.4447 16.0947 14.0223 16.0842 13.6392C16.0684 12.9237 16.0987 12.2094 16.1247 11.4962C15.6805 11.2204 15.2533 10.9236 14.8551 10.596C14.5603 11.0885 13.9394 11.3473 13.769 11.9161C13.5213 12.6046 14.0493 13.2227 14.1607 13.8792C14.2077 14.1895 13.8068 14.2721 13.6169 14.448C13.2029 14.6857 13.0718 15.1733 13.0836 15.6032C13.1058 16.2191 13.5395 16.7349 13.6221 17.3385C13.2697 17.8398 12.6761 18.2032 12.5255 18.82C12.3368 19.3298 12.6328 19.8411 12.8949 20.2758C13.039 20.5308 13.2262 20.8732 13.0167 21.144C12.6879 21.5677 12.2161 21.9408 12.1388 22.4914C11.9489 23.1836 12.3575 23.825 12.558 24.4679C12.7087 24.8718 12.3418 25.1847 12.089 25.458C11.5532 25.9888 11.1418 26.6785 11.126 27.4248C11.109 27.9333 11.3305 28.4088 11.3893 28.9088C11.1678 29.3523 10.6568 29.607 10.4511 30.0652C10.168 30.5923 10.3422 31.1897 10.4956 31.7277C10.3109 31.6747 10.13 31.6219 9.95454 31.5688C9.85093 30.4519 8.96802 29.5172 7.87013 29.1428C8.20948 28.6773 8.5173 28.117 8.2803 27.5466C8.15067 26.9012 7.58057 26.4875 7.01724 26.1722C7.15213 25.6957 7.46145 25.2437 7.42066 24.7349C7.34608 24.1931 6.81403 23.8348 6.33053 23.6168C5.15005 23.3077 3.99184 22.9211 2.80611 22.6413C2.47201 22.7964 2.31485 23.1573 2.24002 23.4811C2.19297 23.9036 2.40519 24.3012 2.44173 24.7189C2.15093 25.1118 1.72248 25.4432 1.6424 25.943C1.47347 26.4455 1.84937 26.927 1.81533 27.427C1.63714 27.9541 1.28477 28.4616 1.39614 29.0427C1.43668 29.6413 2.15869 30.1241 1.85863 30.7485C1.5493 31.4074 1.30705 32.2102 1.75251 32.8704C1.91243 33.2225 2.42196 33.5454 2.1692 33.9628C1.6922 34.7411 1.99876 35.6648 2.4207 36.4001C2.66821 36.8989 3.10467 37.2818 3.39297 37.7585C3.32214 38.1084 3.09691 38.474 3.28285 38.8286C3.64323 39.5196 4.37299 39.932 4.93757 40.4603C5.25065 40.6758 5.01091 41.0539 5.03969 41.3545C5.28069 41.6796 5.72089 41.7829 6.08001 41.9616C6.23993 42.5775 6.91463 42.777 7.45444 43.022C7.5055 43.1401 7.56055 43.261 7.61811 43.3841C7.91817 43.4457 8.22349 43.49 8.53407 43.5207C8.5158 43.6822 8.50003 43.8458 8.49077 44.0123C8.02554 44.3276 7.59985 44.7388 7.50675 45.2943C7.31806 45.8609 7.63388 46.4398 7.54204 47.0024C7.14888 47.5702 6.63133 48.128 6.64059 48.851C6.55275 49.4311 6.91838 49.9274 7.07555 50.4632C6.74145 50.9239 6.18863 51.2538 6.02871 51.8179C5.91084 52.2058 6.19113 52.5581 6.27772 52.9263C6.07851 53.2046 5.78495 53.4288 5.66983 53.7551C5.48764 54.3365 5.60952 55.0149 6.06675 55.4597C6.25669 55.4179 6.44139 55.3551 6.63409 55.3058C6.56202 55.4904 6.48093 55.6739 6.36681 55.8416C5.831 55.9427 5.53745 55.4574 5.37102 55.0645C5.03292 54.3145 5.23213 53.3908 5.87555 52.8392C5.6791 52.4893 5.51668 52.0794 5.68035 51.6915C5.84677 51.1569 6.29098 50.769 6.68914 50.3799C6.28047 49.7492 6.13107 48.9687 6.36806 48.2579C6.50696 47.7346 6.84757 47.2937 7.21445 46.8923C6.93416 45.8554 7.01924 44.5473 8.05432 43.8959C7.75826 43.7913 7.44493 43.6939 7.25123 43.4489C6.90262 43.0155 6.19638 42.9894 5.9226 42.4897C5.68936 42.0279 5.06571 41.9811 4.72235 41.614C4.68031 41.4884 4.64252 41.3653 4.60824 41.2459C4.65403 41.0832 4.70509 40.922 4.72886 40.7581C4.07118 40.178 3.30588 39.6707 2.87493 38.9059C2.79509 38.5218 2.81737 38.1289 3.01107 37.7778C2.26279 37.0315 1.71122 36.0783 1.55155 35.0597C1.46371 34.5807 1.68269 34.141 1.86212 33.7113C1.48223 33.1535 1.03677 32.5598 1.13362 31.8591C1.07206 31.2077 1.85162 30.6028 1.38914 29.9897C0.999981 29.4343 0.872849 28.7126 1.14538 28.0894C1.25425 27.7446 1.55931 27.4047 1.38513 27.0328C1.03927 26.182 1.34458 25.2064 2.0756 24.6238C1.89215 24.1028 1.72573 23.5204 2.01003 23.0032C2.12014 22.6683 2.58788 22.4723 2.49479 22.0869C2.36765 20.9085 2.43723 19.715 2.72027 18.561C2.90897 17.8763 2.85115 17.1571 3.03485 16.4724C3.14221 16.13 3.28761 15.7481 3.64273 15.5684C4.40002 15.205 5.47714 15.6608 5.61328 16.4711C5.69461 17.1558 5.43384 17.8258 5.43109 18.5117C5.71414 18.518 5.99442 18.5523 6.27622 18.6151C6.42162 17.8933 6.51346 17.088 7.04527 16.5129C7.31254 16.1878 7.754 16.3662 8.10787 16.4378C8.50629 16.62 8.70925 17.0597 8.72752 17.4611C8.61215 18.1569 8.41294 18.8416 8.16418 19.5068C8.45248 19.3146 8.78007 19.1842 9.1417 19.2137C9.3369 19.8394 9.20451 20.5008 9.06712 21.1249C8.78533 22.184 7.85136 22.9316 6.8831 23.4514C7.05728 23.7347 7.44393 23.849 7.6051 24.1546C7.95746 24.7397 7.76877 25.4552 7.43092 26.0068C8.54208 26.5413 9.0949 27.9613 8.45549 29.0031C9.08439 29.2974 9.57715 29.7962 9.93478 30.3603C10.1065 29.7679 10.5256 29.2877 11.0184 28.901C10.8873 28.2952 10.6463 27.6793 10.7864 27.0574C10.9241 26.2618 11.4231 25.5721 12.0179 25.0105C12.4189 24.6694 12.0285 24.1841 11.9118 23.8085C11.4794 22.832 11.8255 21.6608 12.7072 21.0116C12.7715 20.4205 12.1451 20.0153 12.1358 19.4314C11.9877 18.5768 12.5773 17.812 13.247 17.3022C13.015 16.5572 12.4857 15.8034 12.7885 15.0041C12.8893 14.483 13.3493 14.1592 13.7908 13.8907C13.6414 13.3156 13.264 12.7798 13.3376 12.1679C13.3756 11.5472 13.8591 11.0805 14.3098 10.6766C14.2365 10.3945 14.0688 10.1248 14.1094 9.82919C14.1394 9.26386 14.5248 8.81189 14.7946 8.33414C14.5849 7.95349 14.2835 7.55458 14.4435 7.10636C14.5864 6.35633 15.4222 5.98069 16.156 5.90561C16.0827 5.15808 15.9528 4.41681 15.9358 3.66678C15.8434 2.7258 15.7493 1.74678 16.0754 0.834085ZM16.3925 1.04956C16.0754 2.14195 16.2954 3.28839 16.3637 4.39804C16.386 4.9829 16.5261 5.557 16.6047 6.13685C16.6177 6.41514 16.205 6.2342 16.0334 6.30202C15.4398 6.33155 14.7703 6.74649 14.7913 7.36238C14.7508 7.70473 15.0614 7.94598 15.2028 8.23679C15.1765 8.45101 15.0428 8.63695 14.9865 8.84642C15.3757 9.22456 15.8657 9.49435 16.3204 9.80217C16.4974 8.98807 16.5707 7.81685 17.5965 7.55708C19.1924 7.44021 20.741 7.94498 22.3237 8.03483C22.857 8.08663 23.4005 8.44125 23.4911 8.96579C23.6378 9.70481 23.5867 10.4646 23.5842 11.2134C24.2301 11.28 24.8736 11.3648 25.5207 11.4424C25.7422 11.2649 25.5901 10.9276 25.6609 10.6898C25.7472 10.1147 25.725 9.36846 26.3093 9.0161C27.1767 8.59115 28.1855 8.79937 29.1197 8.75007C29.8507 8.5874 30.6095 8.61218 31.3511 8.70578C31.9812 8.80062 32.6534 9.12696 32.8919 9.71933C33.1474 10.3758 33.1855 11.0827 33.2653 11.7722C34.2834 11.5753 35.3342 11.5665 36.3442 11.324C36.2539 10.9484 36.1188 10.5702 35.8555 10.2712C35.668 10.0877 35.4218 9.9806 35.2241 9.81793C35.6971 9.23783 36.2657 8.62093 36.2434 7.84012C36.1621 7.30431 35.9579 6.67391 35.346 6.49773C35.5792 5.558 35.6383 4.595 35.7351 3.63925C35.7469 2.74032 35.8688 1.73527 35.2791 0.960716C35.0341 0.620862 34.5571 0.782032 34.2533 0.945953C32.9667 1.6134 31.8596 2.58015 31.063 3.74036C30.8861 4.09873 30.4616 4.15054 30.0907 4.10749C29.6701 3.70958 29.3845 3.08893 28.7398 2.98683C28.2248 2.89198 27.8186 3.24534 27.4205 3.48309C26.9317 3.30441 26.5203 2.91525 25.9857 2.88447C25.4852 2.87096 25.2179 3.34019 24.8077 3.49786C24.374 3.34645 23.9979 3.02737 23.5172 3.0126C22.6197 2.94603 21.882 3.51387 21.2425 4.02616C20.493 3.16176 20.1759 2.0003 19.2262 1.28355C18.6038 0.826578 17.9041 0.297025 17.0657 0.363594C16.6663 0.341571 16.5014 0.759008 16.3925 1.04956ZM16.9323 8.7751C16.4933 10.36 16.4463 12.0127 16.4646 13.6422C16.4528 14.0486 16.5366 14.5191 16.9481 14.7431C17.8483 15.2541 18.9434 15.3084 19.9695 15.3109C20.6036 15.2986 21.2588 15.3479 21.8692 15.1447C22.2831 14.9981 22.4681 14.5806 22.658 14.2358C23.1901 13.0831 23.1978 11.7972 23.2136 10.5635C23.1993 9.94031 23.2489 9.29739 23.0106 8.70502C22.4315 8.28884 21.6885 8.36767 21.0138 8.24455C19.9342 8.0611 18.8428 7.86165 17.7421 7.89969C17.2677 7.92897 17.0412 8.39946 16.9323 8.7751ZM29.7186 9.03737C28.6638 9.27762 27.5123 8.8737 26.5033 9.31941C26.0433 9.65676 26.1116 10.3009 26.0303 10.7947C25.8613 11.9056 26.0801 13.0188 26.0958 14.1334C26.1772 14.7811 26.1076 15.4696 26.4024 16.0792C26.7287 16.6273 27.4913 16.6198 28.0704 16.7246C29.3477 16.8195 30.6816 16.886 31.9094 16.4696C32.3181 16.355 32.478 15.9463 32.5933 15.6002C32.8776 14.6852 33.01 13.7232 32.9562 12.7713C32.8554 11.8057 32.8841 10.8167 32.5631 9.8845C32.3771 9.39074 31.8135 9.13697 31.2988 9.05313C30.7747 9.00408 30.2389 8.94878 29.7186 9.03737ZM14.4665 9.96233C15.0836 10.2689 15.5644 10.7629 16.1828 11.0707C16.201 10.7714 16.2208 10.4734 16.2418 10.1778C15.7125 9.86623 15.246 9.47332 14.714 9.17051C14.5701 9.41426 14.5058 9.68755 14.4665 9.96233ZM23.566 11.5645C23.5514 11.817 23.5384 12.0705 23.5307 12.328C24.2304 12.4464 24.9299 12.5916 25.6466 12.6063C25.5823 12.3428 25.7305 11.9894 25.5142 11.7897C24.8656 11.7036 24.2144 11.6446 23.566 11.5645ZM33.2811 12.1298C33.2916 12.5017 33.2981 12.8761 33.3309 13.2505C33.9468 13.1987 34.5534 13.0708 35.1678 12.987C35.8505 12.966 36.1611 12.2938 36.4519 11.8108C36.1073 11.8538 35.7666 11.9709 35.4195 11.9314C34.7 11.8233 33.9886 12.0447 33.2811 12.1298ZM23.4741 12.6742C23.3562 13.5781 23.0732 14.482 22.4653 15.2075C23.6433 14.9365 24.9219 15.162 25.9151 15.8184C25.7094 14.8887 25.7592 13.9292 25.6531 12.9872C24.9194 12.9242 24.1949 12.806 23.4741 12.6742ZM23.106 15.4698C21.5849 15.6165 20.2457 16.7186 19.8593 18.1015C19.5122 19.3035 19.8986 20.6705 20.8681 21.5276C22.0028 22.6077 23.9001 22.8663 25.3085 22.115C26.8191 21.3687 27.6197 19.6126 27.1572 18.067C26.7105 16.4303 24.8931 15.2553 23.106 15.4698ZM3.69929 15.9623C3.3757 16.3452 3.31939 16.8553 3.27609 17.3267C3.23931 18.2404 2.92498 19.1186 2.85291 20.0288C2.74405 20.7578 2.81361 21.4943 2.88569 22.2233C3.34817 22.4413 3.85795 22.5559 4.35447 22.6951C5.05145 22.859 5.72114 23.1175 6.42212 23.2752C7.15588 22.9131 7.88038 22.4698 8.34287 21.8059C8.80009 21.141 8.87993 20.3206 8.86967 19.5486C8.50804 19.7185 8.17394 19.934 7.84385 20.1497C7.76126 19.9785 7.64089 19.7888 7.72723 19.6004C7.98149 18.9427 8.20673 18.2715 8.33386 17.5808C8.4177 17.1743 8.12414 16.6928 7.6499 16.6941C7.20168 16.5895 7.07205 17.1325 6.94367 17.4231C6.49044 18.4662 6.81928 19.6449 6.36181 20.6842C6.15359 21.1732 5.37128 21.2864 5.02142 20.8799C4.74363 20.433 4.93232 19.9094 4.98738 19.4329C5.13553 18.7727 5.02016 18.0905 5.18658 17.4329C5.23513 16.9956 5.37654 16.4661 5.02142 16.1077C4.69633 15.7886 4.07643 15.6643 3.69929 15.9623ZM5.48765 18.8849C5.35401 19.497 5.13779 20.1397 5.34475 20.7618C5.55297 20.7188 5.87005 20.8184 5.98416 20.5906C6.27121 20.0708 6.25144 19.46 6.27496 18.8899C6.00894 18.8871 5.74692 18.8849 5.48765 18.8849Z" fill="black"/>
<path d="M23.2319 5.93014C23.3052 5.92763 23.4533 5.92037 23.5279 5.91787C23.7324 6.2825 24.2552 6.63837 24.6679 6.32429C24.7334 6.31929 24.8631 6.31078 24.9274 6.30703C24.8881 6.51875 24.8015 6.76651 24.5435 6.8083C23.9774 6.85385 23.2594 6.52751 23.2319 5.93014Z" fill="black"/>
<path d="M18.4822 9.08292C19.4071 8.89573 20.3479 9.10394 21.2716 9.2023C21.6567 9.25535 22.1625 9.2541 22.3655 9.637C22.5396 10.1751 22.4821 10.7467 22.427 11.2995C22.3772 12.0703 22.3144 12.8611 21.9998 13.5839C21.7889 14.0531 21.2911 14.3794 20.7498 14.403C19.8719 14.4645 18.9562 14.3599 18.1503 14.0223C17.4166 13.7217 17.2003 12.9202 17.1533 12.239C17.1245 11.4767 17.1323 10.7009 17.338 9.96058C17.4851 9.47833 17.9844 9.18403 18.4822 9.08292Z" fill="black"/>
<path d="M26.7773 10.5459C27.0749 9.82544 28.0416 9.77013 28.7454 9.7849C29.7294 9.87474 30.7237 9.91428 31.6919 10.1248C31.9907 10.8082 32.0523 11.5545 32.1321 12.2837C32.2382 13.1064 32.1884 13.9537 31.9409 14.7506C31.8033 15.1692 31.4246 15.5056 30.9622 15.5842C30.0162 15.7726 29.0427 15.8257 28.0784 15.8207C27.6054 15.8182 27.0211 15.6495 26.8652 15.1815C26.6294 14.4833 26.7275 13.7393 26.6817 13.0203C26.6409 12.1977 26.502 11.3465 26.7773 10.5459Z" fill="black"/>
<path d="M22.9188 16.1963C23.4861 15.9919 24.098 16.12 24.6824 16.174C24.9902 16.2123 25.0533 16.6037 24.9902 16.8465C24.8198 17.556 24.4529 18.2074 24.0402 18.817C23.8908 19.514 23.9957 20.2936 24.4371 20.8872C24.5943 21.0942 24.8538 21.3307 25.1539 21.2245C25.5102 20.7961 25.5025 20.2173 25.6414 19.711C25.7187 19.7245 25.8721 19.749 25.9479 19.7628C25.9179 20.3294 25.8418 20.9378 25.4762 21.4105C25.2745 21.6778 24.846 21.663 24.584 21.4918C24.0888 21.211 23.8673 20.679 23.6786 20.1937C23.4481 20.663 23.0484 21.1395 22.4601 21.19C21.9608 21.2306 21.5574 20.8674 21.3346 20.4868C21.1642 20.1962 20.9285 19.7996 21.2691 19.5298C21.5364 19.972 21.6555 20.5669 22.1863 20.8119C22.5937 20.9325 22.9566 20.6407 23.1716 20.3439C23.5032 19.8746 23.5527 19.2958 23.604 18.7527C22.9451 18.3033 22.4786 17.605 22.409 16.8365C22.3657 16.5362 22.6463 16.2997 22.9188 16.1963Z" fill="black"/>
<path d="M4.09494 29.9772C4.18128 29.9611 4.35296 29.9291 4.43955 29.9131C4.47884 29.9772 4.56018 30.104 4.59947 30.1681C4.67805 30.2086 4.83396 30.29 4.91254 30.3308C4.95709 30.2605 5.04743 30.1213 5.09198 30.0525C5.16405 30.0575 5.30946 30.0672 5.38153 30.0723C5.35401 30.2249 5.33173 30.3826 5.31071 30.5415C4.8207 30.827 4.2048 30.4759 4.09494 29.9772Z" fill="black"/>
<path d="M18.9462 33.6657C19.0105 33.6657 19.1389 33.6632 19.2029 33.6632C19.313 33.8282 19.4269 33.9933 19.5448 34.1633C20.0898 34.364 20.3203 33.6928 20.8379 33.7653C20.6689 34.1558 20.3111 34.5537 19.8263 34.5512C19.3273 34.5722 18.9264 34.1152 18.9462 33.6657Z" fill="black"/>
<path d="M23.106 15.4698C24.8931 15.2556 26.7105 16.4303 27.1572 18.067C27.6197 19.6126 26.8191 21.3687 25.3085 22.115C23.9001 22.8663 22.0028 22.6075 20.8681 21.5276C19.8986 20.6705 19.512 19.3036 19.8593 18.1016C20.2457 16.7186 21.5849 15.6162 23.106 15.4698ZM22.9188 16.1963C22.6462 16.2997 22.366 16.5362 22.409 16.8367C22.4783 17.6053 22.9448 18.3035 23.604 18.753C23.5529 19.296 23.5031 19.8749 23.1715 20.3441C22.9566 20.6409 22.5937 20.9328 22.1863 20.8121C21.6557 20.5671 21.5363 19.9723 21.2691 19.53C20.9285 19.7998 21.1642 20.1962 21.3346 20.487C21.5574 20.8677 21.9608 21.2308 22.4601 21.1903C23.0484 21.1397 23.4478 20.6632 23.6786 20.194C23.8673 20.6792 24.0887 21.2113 24.584 21.4921C24.846 21.6633 25.2745 21.678 25.4762 21.4107C25.8418 20.9378 25.9177 20.3294 25.9479 19.763C25.8719 19.7495 25.7187 19.7247 25.6414 19.7112C25.5025 20.2175 25.5105 20.7961 25.1539 21.2248C24.8538 21.3307 24.5943 21.0942 24.4371 20.8875C23.9956 20.2938 23.8908 19.5143 24.0402 18.8173C24.4529 18.2077 24.8198 17.5562 24.9902 16.8468C25.053 16.6042 24.9902 16.2126 24.6824 16.1743C24.0978 16.12 23.4859 15.9919 22.9188 16.1963Z" fill="#B5FF53"/>
<path d="M3.6993 15.9623C4.07669 15.6643 4.69634 15.7886 5.02143 16.1077C5.37654 16.4661 5.23489 16.9957 5.18659 17.4329C5.02017 18.0905 5.13554 18.7728 4.98739 19.4329C4.93233 19.9094 4.74364 20.433 5.02143 20.8799C5.37129 21.2864 6.15335 21.173 6.36182 20.6842C6.81904 19.6449 6.4902 18.4662 6.94367 17.4231C7.07206 17.1325 7.20169 16.5895 7.64991 16.6941C8.12415 16.6928 8.41771 17.1743 8.33387 17.5808C8.20674 18.2717 7.9815 18.9429 7.72724 19.6004C7.64065 19.7888 7.76127 19.9785 7.84386 20.1497C8.17395 19.9342 8.50805 19.7187 8.86967 19.5486C8.88019 20.3206 8.80035 21.141 8.34287 21.8059C7.88039 22.4696 7.15589 22.9131 6.42213 23.2752C5.72115 23.1175 5.0517 22.859 4.35448 22.6951C3.85796 22.5559 3.34818 22.4413 2.8857 22.2233C2.81362 21.4943 2.7443 20.7578 2.85292 20.0288C2.92499 19.1186 3.23931 18.2407 3.2761 17.3267C3.31915 16.8553 3.37546 16.3452 3.6993 15.9623Z" fill="#B5FF53"/>
<path d="M5.48765 18.8849C5.74717 18.8849 6.00919 18.8874 6.27522 18.8899C6.25169 19.46 6.27122 20.0709 5.98442 20.5906C5.87055 20.8184 5.55347 20.7188 5.345 20.7618C5.13779 20.1397 5.35401 19.4968 5.48765 18.8849Z" fill="#B5FF53"/>
<path d="M16.3925 1.04957C16.5013 0.759015 16.6663 0.341327 17.0659 0.3636C17.9046 0.297031 18.604 0.826584 19.2264 1.28356C20.1764 2.00031 20.4935 3.16176 21.2428 4.02616C21.8822 3.51388 22.6197 2.94604 23.5174 3.01261C23.9981 3.02737 24.3743 3.34645 24.808 3.49786C25.2182 3.3402 25.4854 2.87096 25.986 2.88448C26.5205 2.91526 26.932 3.30441 27.4207 3.4831C27.8191 3.24535 28.225 2.89198 28.7401 2.98683C29.3847 3.08894 29.6703 3.70983 30.091 4.1075C30.4619 4.15054 30.8863 4.09899 31.0632 3.74037C31.8598 2.58016 32.967 1.6134 34.2536 0.945959C34.5576 0.782288 35.0344 0.620868 35.2794 0.960722C35.869 1.73528 35.7471 2.74032 35.7354 3.63926C35.6385 4.595 35.5794 5.558 35.3462 6.49773C35.9581 6.67392 36.1625 7.30432 36.2436 7.84013C36.2659 8.62094 35.6973 9.23784 35.2243 9.81794C35.422 9.98061 35.6685 10.0877 35.8557 10.2712C36.119 10.5705 36.2541 10.9486 36.3445 11.324C35.3344 11.5665 34.2836 11.5753 33.2655 11.7722C33.1857 11.0825 33.1477 10.3755 32.8921 9.71933C32.6536 9.12697 31.9815 8.80063 31.3513 8.70578C30.6098 8.61218 29.8512 8.58766 29.12 8.75008C28.1858 8.79938 27.177 8.59116 26.3096 9.0161C25.7252 9.36822 25.7475 10.1147 25.6611 10.6898C25.5903 10.9276 25.7425 11.2649 25.521 11.4424C24.8738 11.3648 24.2304 11.2797 23.5845 11.2134C23.587 10.4646 23.6383 9.70482 23.4914 8.9658C23.401 8.44125 22.8572 8.08639 22.3239 8.03483C20.7413 7.94499 19.1924 7.43996 17.5967 7.55708C16.5709 7.81685 16.4973 8.98808 16.3207 9.80217C15.8659 9.49435 15.3759 9.22457 14.9868 8.84643C15.0431 8.63696 15.1767 8.45102 15.203 8.23679C15.0616 7.94624 14.751 7.70474 14.7916 7.36238C14.7705 6.74649 15.4402 6.33156 16.0336 6.30203C16.2053 6.23421 16.618 6.4154 16.605 6.13686C16.5264 5.55675 16.3862 4.98291 16.364 4.39805C16.2956 3.28864 16.0754 2.14195 16.3925 1.04957ZM23.2319 5.93014C23.2594 6.52752 23.9774 6.85386 24.5435 6.80831C24.8015 6.76651 24.8881 6.51901 24.9274 6.30704C24.863 6.31079 24.7334 6.3193 24.6678 6.3243C24.2552 6.63838 23.7324 6.28251 23.5279 5.91788C23.4533 5.92038 23.3052 5.92789 23.2319 5.93014Z" fill="#BFE3FF"/>
<path d="M14.8556 10.5965C15.2541 10.9241 15.681 11.2209 16.1252 11.4967C16.0989 12.2097 16.0689 12.9242 16.0847 13.6397C16.0952 14.0228 16.1305 14.445 16.407 14.7531C16.7136 15.1004 17.1748 15.2766 17.6255 15.4045C18.8518 15.7431 20.1476 15.679 21.4107 15.6385C20.1464 16.2701 19.3891 17.609 19.3656 18.9342C19.3158 20.5906 20.5185 22.1978 22.2008 22.6991C23.7284 23.2089 25.5392 22.7446 26.5991 21.5944C27.8464 20.3456 27.9958 18.3063 26.987 16.8863C28.0679 17.1388 29.1933 17.1856 30.302 17.1313C30.9401 17.0647 31.5991 16.9934 32.1899 16.7384C32.5188 16.6017 32.718 16.2974 32.8411 15.9946C33.1384 15.2323 33.2866 14.4232 33.3128 13.6141C34.1998 13.5328 35.0684 13.3026 35.9621 13.2558C36.3905 13.3826 36.5149 13.8554 36.6879 14.2002C36.9564 14.9798 37.2171 15.8837 36.7847 16.656C36.4939 17.2399 35.8177 17.533 35.5216 18.1131C35.7366 18.1203 35.9541 18.1278 36.1768 18.1353C36.7887 18.7535 36.7677 19.6587 36.6145 20.4382C36.4874 21.0664 36.139 21.6205 35.8467 22.1896C36.1598 22.3878 36.5044 22.5985 36.634 22.9569C37.0192 23.8781 36.8883 24.984 36.2922 25.8041C36.144 26.0553 35.8953 26.2771 35.869 26.5751C36.3067 26.8842 36.7507 27.224 36.9238 27.7388C37.5723 29.0479 37.351 30.6526 36.4063 31.7858C36.7534 32.1577 37.2199 32.4642 37.3823 32.962C37.8213 34.0126 37.4504 35.1776 36.785 36.0642C37.1098 36.4264 37.4884 36.7885 37.5855 37.2747C37.7637 38.0383 37.8763 38.9262 37.3693 39.6072C37.2187 39.8757 36.9121 40.0987 36.9186 40.4238C37.1045 40.622 37.3393 40.7771 37.545 40.9643C37.9799 41.3337 38.0941 42.0062 37.7705 42.4742C37.6551 42.7254 37.3565 42.9459 37.4376 43.2427C37.7993 43.4657 38.2722 43.5961 38.4767 43.9902C38.7177 44.4667 38.6404 45.0283 38.4962 45.5223C38.2642 46.2909 37.6341 46.8585 37.1821 47.5112C37.583 47.9408 38.1726 48.335 38.1386 48.9779C38.229 49.6934 37.7024 50.2638 37.3721 50.8574C37.6564 50.9312 37.9484 51.0015 38.242 51.0669C38.3271 51.3476 38.3979 51.658 38.1909 51.913C38.001 52.3354 37.4964 52.429 37.0903 52.5744C36.8728 52.9155 37.2725 52.8454 37.5095 52.8244C37.0182 52.9438 36.557 53.1385 36.0865 53.3047C33.1319 54.2174 30.0177 54.4844 26.9465 54.8255C23.5582 55.1446 20.1699 55.4659 16.7726 55.6987C13.319 55.9302 9.80489 56.514 6.36831 55.8428C6.48243 55.6754 6.56351 55.492 6.63559 55.307C6.44289 55.3563 6.2582 55.4191 6.06825 55.4609C5.61102 55.0165 5.48915 54.3377 5.67133 53.7564C5.7867 53.4301 6.08001 53.2058 6.27921 52.9275C6.19262 52.5594 5.91233 52.207 6.03021 51.8191C6.19012 51.255 6.74295 50.925 7.07705 50.4645C6.91988 49.9287 6.55425 49.4324 6.64209 48.8523C6.63283 48.1293 7.15037 47.5715 7.54353 47.0036C7.63512 46.4408 7.31955 45.8619 7.50824 45.2956C7.60134 44.7403 8.02704 44.3288 8.49227 44.0135C8.50153 43.8473 8.51705 43.6834 8.53557 43.522C8.22499 43.4912 7.91967 43.4469 7.61961 43.3854C7.56205 43.2622 7.507 43.1416 7.45594 43.0232C6.91613 42.7782 6.24143 42.5788 6.08151 41.9629C5.72264 41.7842 5.28218 41.6808 5.04118 41.3557C5.0124 41.0552 5.25215 40.677 4.93907 40.4616C4.37424 39.9333 3.64448 39.5206 3.28435 38.8299C3.09841 38.4753 3.32364 38.1094 3.39447 37.7598C3.10617 37.2833 2.66996 36.9001 2.4222 36.4013C2.00027 35.6661 1.6937 34.7424 2.17069 33.9641C2.42345 33.5466 1.91393 33.224 1.75401 32.8717C1.30855 32.2115 1.55105 31.4086 1.86012 30.7497C2.16018 30.1253 1.43818 29.6426 1.39764 29.0439C1.28627 28.4626 1.63864 27.9553 1.81682 27.4283C1.85086 26.9282 1.47497 26.4467 1.6439 25.9442C1.72373 25.4442 2.15218 25.1128 2.44323 24.7202C2.40644 24.3028 2.19422 23.9048 2.24152 23.4824C2.3161 23.1586 2.47351 22.7977 2.80761 22.6425C3.99334 22.9221 5.15155 23.3087 6.33203 23.618C6.81553 23.836 7.34733 24.1944 7.42216 24.7362C7.4627 25.2447 7.15363 25.6967 7.01874 26.1735C7.58207 26.4888 8.15217 26.9025 8.2818 27.5479C8.51905 28.118 8.21097 28.6786 7.87162 29.144C8.96951 29.5184 9.85269 30.4532 9.95604 31.5701C10.1317 31.6231 10.3124 31.6759 10.4971 31.729C10.3437 31.1909 10.1695 30.5936 10.4526 30.0665C10.6583 29.6083 11.1693 29.3535 11.3908 28.9101C11.3317 28.41 11.1105 27.9348 11.1275 27.426C11.1433 26.6797 11.5547 25.99 12.0905 25.4592C12.3433 25.1859 12.7102 24.8731 12.5595 24.4692C12.359 23.8263 11.9501 23.1846 12.1403 22.4926C12.2176 21.9421 12.6894 21.5689 13.0182 21.1452C13.2279 20.8742 13.0405 20.5318 12.8963 20.2771C12.6343 19.8424 12.3383 19.3313 12.527 18.8213C12.6776 18.2044 13.2712 17.841 13.6236 17.3398C13.541 16.7364 13.1073 16.2203 13.085 15.6045C13.0733 15.1748 13.2042 14.687 13.6184 14.4493C13.8083 14.2731 14.2092 14.1907 14.1622 13.8804C14.0508 13.224 13.5228 12.6058 13.7705 11.9174C13.9397 11.3478 14.5608 11.0893 14.8556 10.5965ZM4.09494 29.9772C4.20506 30.4759 4.8207 30.827 5.31071 30.5412C5.33173 30.3823 5.35401 30.2247 5.38154 30.072C5.30946 30.067 5.16406 30.0572 5.09198 30.0522C5.04744 30.1213 4.95709 30.2605 4.91254 30.3305C4.83396 30.29 4.67805 30.2087 4.59947 30.1679C4.56018 30.1038 4.47885 29.9769 4.43955 29.9128C4.35296 29.9291 4.18128 29.9611 4.09494 29.9772ZM18.9461 33.6657C18.9266 34.1152 19.3275 34.5722 19.8266 34.5512C20.3113 34.5537 20.6689 34.1558 20.8381 33.7654C20.3206 33.6928 20.0901 34.364 19.545 34.1633C19.4271 33.9933 19.313 33.8282 19.2032 33.6632C19.1386 33.6632 19.0102 33.6657 18.9461 33.6657ZM26.4562 43.3283C26.4877 44.0636 27.4507 44.6399 28.149 44.2335C28.3847 44.1399 28.2931 43.8616 28.3089 43.6794C28.1412 43.7828 27.976 43.8936 27.8229 44.0133C27.5543 43.9972 27.249 43.991 27.0708 43.7805C26.8914 43.5688 26.7905 43.3138 26.6464 43.087C26.5768 43.1634 26.5205 43.2495 26.4562 43.3283ZM13.6083 48.2975C13.5768 48.3493 13.5152 48.4526 13.484 48.5032C13.7212 48.9724 14.2885 49.2975 14.8466 49.1816C15.0536 49.1484 15.0261 48.9106 15.1139 48.7752C14.6121 48.8933 13.9662 48.8368 13.8233 48.2789C13.7695 48.284 13.6621 48.2927 13.6083 48.2975Z" fill="#BFE3FF"/>
<path d="M23.4741 12.6742C24.1946 12.806 24.9194 12.9242 25.6531 12.987C25.7592 13.9292 25.7094 14.8885 25.9151 15.8182C24.9221 15.1617 23.6433 14.9365 22.4653 15.2073C23.0732 14.482 23.3562 13.5781 23.4741 12.6742Z" fill="#BFE3FF"/>
<path d="M16.9323 8.7751C17.0412 8.39946 17.2676 7.92897 17.7419 7.89944C18.8425 7.8614 19.9339 8.06086 21.0135 8.2443C21.6882 8.36743 22.4313 8.28859 23.0104 8.70478C23.2489 9.29714 23.1991 9.94006 23.2133 10.5632C23.1976 11.7972 23.1898 13.0828 22.6578 14.2355C22.4678 14.5804 22.2831 14.9978 21.8689 15.1445C21.2583 15.3477 20.6034 15.2984 19.9692 15.3107C18.9434 15.3081 17.848 15.2541 16.9478 14.7428C16.5364 14.5186 16.4526 14.0481 16.4643 13.6419C16.4463 12.0127 16.4933 10.36 16.9323 8.7751ZM18.4822 9.08292C17.9844 9.18403 17.4851 9.47833 17.3385 9.96108C17.1328 10.7014 17.125 11.4772 17.1538 12.2395C17.2008 12.9204 17.4171 13.7222 18.1508 14.0228C18.9567 14.3602 19.8724 14.465 20.7503 14.4035C21.2913 14.3799 21.7893 14.0536 22.0003 13.5844C22.3149 12.8614 22.3777 12.0708 22.4275 11.3C22.4826 10.7469 22.5401 10.1756 22.366 9.6375C22.163 9.2546 21.6572 9.25585 21.2721 9.2028C20.3481 9.10394 19.4074 8.89573 18.4822 9.08292Z" fill="#F1FF53"/>
<path d="M29.7186 9.03738C30.2386 8.94878 30.7747 9.00409 31.2987 9.05339C31.8135 9.13723 32.3771 9.39074 32.5631 9.88476C32.8841 10.817 32.8551 11.806 32.9562 12.7715C33.01 13.7235 32.8776 14.6852 32.5933 15.6005C32.478 15.9466 32.3183 16.3555 31.9094 16.4699C30.6816 16.886 29.348 16.8197 28.0704 16.7249C27.4913 16.6203 26.7287 16.6275 26.4024 16.0795C26.1076 15.4698 26.1769 14.7814 26.0958 14.1337C26.0801 13.019 25.8613 11.9059 26.0303 10.795C26.1114 10.3012 26.0433 9.65702 26.5033 9.31967C27.5123 8.8737 28.664 9.27763 29.7186 9.03738ZM26.7773 10.5459C26.5023 11.3465 26.6412 12.1974 26.6817 13.02C26.7275 13.7393 26.6294 14.483 26.8651 15.1813C27.021 15.6493 27.6054 15.8179 28.0784 15.8204C29.0426 15.8254 30.0162 15.7724 30.9621 15.5839C31.4246 15.5051 31.8033 15.169 31.9409 14.7503C32.1887 13.9535 32.2385 13.1061 32.1321 12.2835C32.0523 11.5545 31.9907 10.8082 31.6919 10.1245C30.7236 9.91379 29.7291 9.8745 28.7453 9.78465C28.0416 9.77014 27.0746 9.8257 26.7773 10.5459Z" fill="#F1FF53"/>
<path d="M14.4665 9.96234C14.5058 9.6878 14.5701 9.41427 14.714 9.17051C15.246 9.47358 15.7123 9.86624 16.2418 10.1778C16.2208 10.4734 16.2013 10.7714 16.1828 11.0707C15.5644 10.7629 15.0836 10.2689 14.4665 9.96234Z" fill="#F1FF53"/>
<path d="M23.566 11.5645C24.2146 11.6446 24.8658 11.7036 25.5142 11.79C25.7305 11.9894 25.5823 12.3428 25.6466 12.6066C24.9299 12.5918 24.2304 12.4464 23.5307 12.3283C23.5384 12.0708 23.5514 11.817 23.566 11.5645Z" fill="#F1FF53"/>
<path d="M33.2811 12.1298C33.9885 12.0448 34.7 11.8233 35.4193 11.9316C35.7664 11.9709 36.1072 11.8541 36.4516 11.811C36.1608 12.2938 35.8502 12.9662 35.1675 12.9872C34.5531 13.0711 33.9465 13.199 33.3306 13.2508C33.2981 12.8761 33.2916 12.5017 33.2811 12.1298Z" fill="#F1FF53"/>
<path d="M14.323 38.11V37.26H13.443V31.62H14.713V36.75H16.973V35.89H18.253V37.26H17.363V38.11H14.323ZM19.4684 38.11V33.33H20.3484V32.48H21.2284V31.62H22.5084V32.48H23.3884V33.33H24.2784V38.11H22.9984V36.4H20.7384V38.11H19.4684ZM20.7384 35.03H22.9984V33.84H22.1184V32.99H21.6184V33.84H20.7384V35.03ZM25.4938 38.11V32.48H26.3738V31.62H29.4138V32.48H30.3038V35.54H29.4138V36.4H26.7638V38.11H25.4938ZM26.7638 35.03H29.0238V32.99H26.7638V35.03ZM31.5192 38.11V36.75H32.3992V32.99H31.5192V31.62H34.5592V32.99H33.6692V36.75H34.5592V38.11H31.5192Z" fill="#FF00A2"/>
</g>
<defs>
<clipPath id="clip0_1_4">
<rect width="40" height="40" fill="white"/>
</clipPath>
</defs>
</svg>
